<?xml version="1.0" encoding="UTF-8"?> <svg xmlns="http://www.w3.org/2000/svg" width="182" height="35" viewBox="0 0 182 35" fill="none"><g clip-path="url(#clip0_987_892)"><path d="M17.4887 0C14.0251 0 10.6392 1.03899 7.76587 2.9774C4.87698 4.90031 2.64042 7.6451 1.32023 10.8396C3.66271e-05 14.0341 -0.34166 17.5543 0.341733 20.9504C1.02513 24.3465 2.70255 27.4634 5.15655 29.8981C7.61055 32.3327 10.7324 34.0075 14.1339 34.6743C17.5353 35.3412 21.061 35 24.2605 33.6664C27.46 32.3327 30.1936 30.0997 32.1195 27.2153C34.0454 24.331 35.0705 20.9504 35.0705 17.4922C35.0705 15.1972 34.6046 12.9176 33.7193 10.7931C32.834 8.66859 31.5448 6.73017 29.8985 5.11741C28.2677 3.48914 26.3262 2.20204 24.1984 1.33363C22.0705 0.449712 19.7874 0 17.4887 0ZM21.8531 13.1967H13.1088C13.1088 13.1967 13.0311 13.2122 13 13.2432C12.969 13.2743 12.9534 13.3053 12.9534 13.3518V22.0979C12.9534 22.0979 12.9534 22.1755 13 22.2065C13.0311 22.2375 13.0622 22.253 13.1088 22.253H21.8531C21.8531 22.253 21.9307 22.2375 21.9618 22.2065C21.9929 22.1755 22.0084 22.1444 22.0084 22.0979V19.7408H30.8459C30.3178 23.0904 28.5472 26.1143 25.8758 28.2233C23.2043 30.3168 19.8495 31.3403 16.4636 31.0767C13.0777 30.813 9.90924 29.2778 7.61055 26.7966C5.31186 24.3 4.02274 21.0434 4.02274 17.6473C4.02274 14.2512 5.29633 10.9947 7.61055 8.49801C9.90924 6.00133 13.0777 4.48161 16.4636 4.21799C19.8495 3.95436 23.2199 4.97785 25.8758 7.07133C28.5472 9.16482 30.3178 12.2043 30.8459 15.5538H22.0395V13.3983C22.0395 13.3983 22.0395 13.3518 22.0395 13.3363C22.0395 13.3208 22.0239 13.2898 21.9929 13.2743C21.9773 13.2743 21.9618 13.2432 21.9307 13.2432C21.9152 13.2432 21.8841 13.2432 21.8686 13.2432V13.2122L21.8531 13.1967Z" fill="#FFCB24"></path><path d="M54.1278 27.0448C52.9008 27.0448 51.7515 26.7966 50.6643 26.3159C49.5771 25.8352 48.6296 25.1529 47.822 24.3C46.9988 23.4471 46.362 22.4391 45.8961 21.307C45.4301 20.1595 45.1971 18.9499 45.1971 17.6473C45.1971 16.3447 45.4301 15.1351 45.8961 13.9876C46.362 12.8401 46.9988 11.8476 47.822 10.9947C48.6452 10.1418 49.5926 9.45946 50.6643 8.97874C51.736 8.49801 52.9008 8.24989 54.1278 8.24989C55.6034 8.24989 56.9546 8.59105 58.1971 9.27338C59.4397 9.9557 60.4648 10.8551 61.2724 11.9872L59.3465 13.0261C58.7407 12.2353 57.9797 11.5995 57.0633 11.1343C56.147 10.669 55.1685 10.4209 54.1434 10.4209C53.1959 10.4209 52.3262 10.607 51.503 10.9947C50.6798 11.3824 49.9654 11.8941 49.3596 12.5609C48.7384 13.2277 48.2724 13.9876 47.9152 14.8715C47.5735 15.7399 47.4026 16.6704 47.4026 17.6628C47.4026 18.6553 47.5735 19.5857 47.9307 20.4541C48.2879 21.3226 48.7694 22.0979 49.3907 22.7647C50.012 23.4316 50.7264 23.9433 51.5496 24.331C52.3728 24.7187 53.2425 24.8892 54.1589 24.8892C55.2151 24.8892 56.1936 24.6566 57.0944 24.1759C57.9952 23.6952 58.7563 23.0749 59.362 22.284L61.2879 23.3385C60.4803 24.4705 59.4552 25.37 58.2127 26.0523C56.9701 26.7346 55.6189 27.0758 54.1434 27.0758L54.1278 27.0448Z" fill="white"></path><path d="M69.0072 26.7036V8.56004H71.1816V24.5171H79.3202V26.6881H69.0072V26.7036Z" fill="white"></path><path d="M93.9821 8.56004H96.6225L103.223 26.7036H100.909L99.558 22.9973H91.0311L89.6953 26.7036H87.3656L93.9666 8.56004H93.9821ZM91.8387 20.8263H98.7503L95.2867 11.3514L91.8387 20.8263Z" fill="white"></path><path d="M111.284 26.7036V8.56004H117.668C118.631 8.56004 119.516 8.79265 120.293 9.27337C121.069 9.7541 121.706 10.3899 122.157 11.1963C122.622 12.0027 122.855 12.9021 122.855 13.8946C122.855 14.763 122.685 15.5693 122.343 16.2827C122.001 16.996 121.52 17.6008 120.93 18.0815C120.324 18.5623 119.64 18.8879 118.879 19.074L123.29 26.7036H120.774L116.441 19.2601H113.474V26.7036H111.3H111.284ZM113.459 17.0736H117.435C118.025 17.0736 118.569 16.934 119.05 16.6393C119.547 16.3447 119.936 15.957 120.231 15.4608C120.526 14.9646 120.665 14.4063 120.665 13.786C120.665 13.1657 120.526 12.5919 120.231 12.0957C119.936 11.5995 119.547 11.2118 119.05 10.9171C118.553 10.6225 118.01 10.4829 117.435 10.4829H113.459V17.0736Z" fill="white"></path><path d="M134.924 26.595V8.66859H137.098V26.5795H134.924V26.595Z" fill="white"></path><path d="M159.433 8.56004V10.7311H153.391V26.6881H151.216V10.7466H145.19V8.57554H159.448L159.433 8.56004Z" fill="white"></path><path d="M179.437 8.52902H182L175.849 18.4692V26.6726H173.675V18.4692L167.524 8.52902H170.087L174.762 16.0811L179.437 8.52902Z" fill="white"></path></g><defs><clipPath id="clip0_987_892"><rect width="182" height="35" fill="white"></rect></clipPath></defs></svg> 