<svg viewBox="0 0 204 25" focusable="false" class="chakra-icon css-106ai6y" fill-rule="evenodd" clip-rule="evenodd"><path fill="currentColor" d="M0.312 24V0.199998H5.82V9.822H14.048V0.199998H19.556V24H14.048V14.548H5.82V24H0.312ZM29.897 24.442C27.9477 24.442 26.4517 23.864 25.409 22.708C24.3664 21.5293 23.845 19.8747 23.845 17.744V7.612H29.115V16.588C29.115 18.9 30.0217 20.056 31.835 20.056C33.943 20.056 34.997 18.8433 34.997 16.418V7.612H40.165V24H34.997V21.654C34.0224 23.5127 32.3224 24.442 29.897 24.442ZM44.4682 24V7.612H49.6702V9.992C50.0328 9.15333 50.6222 8.47333 51.4382 7.952C52.2768 7.43067 53.2515 7.17 54.3622 7.17C56.9462 7.17 58.6575 8.17867 59.4962 10.196C59.9495 9.28933 60.6408 8.564 61.5702 8.02C62.4995 7.45333 63.5535 7.17 64.7322 7.17C68.6082 7.17 70.5462 9.39133 70.5462 13.834V24H65.3102V14.786C65.3102 12.6327 64.4942 11.556 62.8622 11.556C61.0262 11.556 60.1082 12.8933 60.1082 15.568V24H54.8722V14.752C54.8722 12.6213 54.0675 11.556 52.4582 11.556C51.5515 11.556 50.8602 11.862 50.3842 12.474C49.9082 13.0633 49.6702 14.0947 49.6702 15.568V24H44.4682ZM81.1778 24.442C78.7978 24.442 76.9165 23.6373 75.5338 22.028C74.1511 20.4187 73.4598 18.3447 73.4598 15.806C73.4598 13.3127 74.1738 11.25 75.6018 9.618C77.0298 7.986 78.9111 7.17 81.2458 7.17C82.4018 7.17 83.4331 7.41933 84.3398 7.918C85.2465 8.41667 85.9265 9.09667 86.3798 9.958V7.612H91.5478V24H86.3798V21.688C85.9265 22.504 85.2238 23.1727 84.2718 23.694C83.3425 24.1927 82.3111 24.442 81.1778 24.442ZM82.6738 20.124C83.9205 20.124 84.8838 19.716 85.5638 18.9C86.2438 18.084 86.5838 17.0527 86.5838 15.806C86.5838 14.582 86.2438 13.562 85.5638 12.746C84.8838 11.93 83.9205 11.522 82.6738 11.522C81.4951 11.522 80.5431 11.9187 79.8178 12.712C79.1151 13.5053 78.7638 14.5367 78.7638 15.806C78.7638 17.0753 79.1151 18.118 79.8178 18.934C80.5431 19.7273 81.4951 20.124 82.6738 20.124ZM95.8666 24V7.612H101.069V9.992C102.043 8.11067 103.811 7.17 106.373 7.17C110.362 7.17 112.357 9.40267 112.357 13.868V24H107.121V15.568C107.121 14.1627 106.894 13.1427 106.441 12.508C106.01 11.8733 105.273 11.556 104.231 11.556C102.123 11.556 101.069 12.848 101.069 15.432V24H95.8666ZM128.215 0.199998H133.417V24H128.249V21.688C127.796 22.504 127.093 23.1727 126.141 23.694C125.212 24.1927 124.18 24.442 123.047 24.442C120.667 24.442 118.786 23.6373 117.403 22.028C116.02 20.4187 115.329 18.3447 115.329 15.806C115.329 13.3127 116.043 11.25 117.471 9.618C118.899 7.986 120.78 7.17 123.115 7.17C124.271 7.17 125.302 7.41933 126.209 7.918C127.116 8.41667 127.796 9.09667 128.249 9.958V8.564H128.215V0.199998ZM124.543 20.124C125.79 20.124 126.753 19.716 127.433 18.9C128.113 18.084 128.453 17.0527 128.453 15.806C128.453 14.582 128.113 13.562 127.433 12.746C126.753 11.93 125.79 11.522 124.543 11.522C123.364 11.522 122.412 11.9187 121.687 12.712C120.984 13.5053 120.633 14.5367 120.633 15.806C120.633 17.0753 120.984 18.118 121.687 18.934C122.412 19.7273 123.364 20.124 124.543 20.124ZM152.152 22.062C150.52 23.694 148.321 24.51 145.556 24.51C142.79 24.51 140.58 23.694 138.926 22.062C137.271 20.43 136.444 18.3447 136.444 15.806C136.444 13.2673 137.271 11.1933 138.926 9.584C140.58 7.952 142.79 7.136 145.556 7.136C148.321 7.136 150.52 7.952 152.152 9.584C153.806 11.1933 154.634 13.2673 154.634 15.806C154.634 18.3447 153.806 20.43 152.152 22.062ZM145.556 20.09C146.757 20.09 147.709 19.6933 148.412 18.9C149.114 18.1067 149.466 17.0753 149.466 15.806C149.466 14.5367 149.114 13.5053 148.412 12.712C147.709 11.9187 146.757 11.522 145.556 11.522C144.332 11.522 143.368 11.9187 142.666 12.712C141.986 13.5053 141.646 14.5367 141.646 15.806C141.646 17.0753 141.986 18.1067 142.666 18.9C143.368 19.6933 144.332 20.09 145.556 20.09ZM157.624 24V7.612H162.826V9.992C163.801 8.11067 165.569 7.17 168.13 7.17C172.12 7.17 174.114 9.40267 174.114 13.868V24H168.878V15.568C168.878 14.1627 168.652 13.1427 168.198 12.508C167.768 11.8733 167.031 11.556 165.988 11.556C163.88 11.556 162.826 12.848 162.826 15.432V24H157.624ZM194.393 14.956C194.393 15.636 194.347 16.3953 194.257 17.234H182.153C182.198 18.2993 182.561 19.1267 183.241 19.716C183.921 20.3053 184.839 20.6 185.995 20.6C187.581 20.6 188.601 20.09 189.055 19.07H194.155C193.905 20.6793 193.021 21.994 191.503 23.014C190.007 24.0113 188.171 24.51 185.995 24.51C183.207 24.51 181.008 23.7393 179.399 22.198C177.789 20.6567 176.985 18.526 176.985 15.806C176.985 13.1313 177.789 11.0233 179.399 9.482C181.008 7.918 183.15 7.136 185.825 7.136C188.363 7.136 190.426 7.86133 192.013 9.312C193.599 10.7627 194.393 12.644 194.393 14.956ZM182.153 14.004H189.259C189.236 12.916 188.93 12.0773 188.341 11.488C187.751 10.8987 186.901 10.604 185.791 10.604C184.68 10.604 183.796 10.9213 183.139 11.556C182.504 12.168 182.175 12.984 182.153 14.004ZM202.479 23.354C201.844 24.0113 201.051 24.34 200.099 24.34C199.147 24.34 198.342 24.0113 197.685 23.354C197.05 22.6967 196.733 21.9147 196.733 21.008C196.733 20.0787 197.05 19.2967 197.685 18.662C198.342 18.0047 199.147 17.676 200.099 17.676C201.051 17.676 201.844 18.0047 202.479 18.662C203.136 19.2967 203.465 20.0787 203.465 21.008C203.465 21.9147 203.136 22.6967 202.479 23.354Z"></path></svg>