<svg xmlns="http://www.w3.org/2000/svg" width="161" height="28" fill="none"><path fill="#180F31" d="M.302 0a.303.303 0 0 0-.21.52L3.91 4.219a.96.96 0 0 0 .679.285l9.348.078c.74 0 1.443.14 2.088.417a5.232 5.232 0 0 1 1.695 1.153c.483.47.867 1.037 1.145 1.683.276.644.416 1.345.416 2.083 0 .79-.155 1.632-.416 2.249-.258.602-.604 1.012-1.154 1.562-.48.49-1.056 1.03-1.684 1.312-.708.302-1.389.449-2.081.449H6.129a.303.303 0 0 0-.21.52l11.5 11.139c.207.207.482.322.774.322h5.458a.303.303 0 0 0 .21-.52l-7.498-7.27a.086.086 0 0 1 .04-.145 9.857 9.857 0 0 0 2.399-.96 10.122 10.122 0 0 0 2.656-2.17 10.314 10.314 0 0 0 1.763-2.96 9.797 9.797 0 0 0 .641-3.528 9.477 9.477 0 0 0-.795-3.858 9.823 9.823 0 0 0-2.13-3.133A9.863 9.863 0 0 0 17.8.796 9.523 9.523 0 0 0 13.936 0H.302Z"/><path fill="#9A47F4" d="M1.446 27.47h1.789a.13.13 0 0 0 .129-.13v-8.793a.315.315 0 0 0-.09-.218l-1.739-1.684a.129.129 0 0 0-.218.093V27.34c0 .072.057.13.129.13Zm2.644-.13c0 .072.058.13.129.13H6.01a.13.13 0 0 0 .13-.13v-6.105a.315.315 0 0 0-.09-.218l-1.742-1.688a.129.129 0 0 0-.22.093v7.918Zm2.902.13h1.79a.13.13 0 0 0 .128-.13v-3.422a.315.315 0 0 0-.09-.218l-1.738-1.685a.129.129 0 0 0-.219.093v5.232c0 .072.058.13.13.13Zm2.644-2.674v2.544c0 .072.058.13.13.13h2.627a.13.13 0 0 0 .09-.223l-2.628-2.544a.129.129 0 0 0-.219.093Z"/><path fill="#180F31" d="M34.61 7.551c-2.853 0-5.493.997-7.43 2.807-2 1.866-3.099 4.49-3.099 7.386 0 2.897 1.101 5.52 3.098 7.387 1.938 1.81 4.578 2.806 7.431 2.806 5.936 0 10.413-4.382 10.413-10.193 0-5.81-4.476-10.193-10.413-10.193Zm0 16.19a5.804 5.804 0 0 1-3.965-1.596c-1.162-1.108-1.801-2.67-1.801-4.4 0-1.728.64-3.29 1.801-4.399a5.801 5.801 0 0 1 3.965-1.595c2.777 0 5.65 2.243 5.65 5.995 0 3.752-2.872 5.995-5.65 5.995ZM98.715 1.62a.305.305 0 0 0-.2.284l-.133 25.22c0 .167.135.302.301.302h4.401a.302.302 0 0 0 .301-.303l-.024-26.82a.3.3 0 0 0-.404-.283l-4.242 1.602h.001l-.001-.002ZM62.577 8.83a.305.305 0 0 0-.2.283v1.094a.042.042 0 0 1-.075.026c-1.486-1.935-3.952-2.457-4.964-2.573a10.11 10.11 0 0 0-1.488-.11c-2.395 0-4.769 1.033-6.51 2.834-1.85 1.912-2.871 4.532-2.871 7.378 0 2.847 1.019 5.458 2.869 7.36 1.74 1.79 4.114 2.814 6.512 2.814.184 0 .364-.008.542-.019l-.003.003s4.2-.088 5.908-3.39c.021-.04.08-.027.08.019v2.573c0 .168.136.302.301.302h4.46c.166 0 .3-.136.3-.302l.018-19.643a.3.3 0 0 0-.404-.284L62.578 8.83h-.002Zm-11.544 8.934c0-3.52 2.285-5.978 5.558-5.978 2.77 0 5.636 2.235 5.636 5.978s-2.866 5.94-5.636 5.94c-3.324 0-5.558-2.387-5.558-5.94Zm70.389 2.074a.282.282 0 0 0-.385.17v.005s-.259.918-.897 1.749c-.002.003-.005.004-.006.008a4.773 4.773 0 0 1-1.221 1.13l-.143.09c-.667.401-1.457.668-2.369.798-2.576.368-4.809-1.003-5.825-3.576l-.056-.14 14.296-2.9a.302.302 0 0 0 .235-.358l-.107-.644a10.955 10.955 0 0 0-.713-2.506c-1.403-3.286-4.264-5.513-7.56-6.017h-.001a9.667 9.667 0 0 0-3.41.089c-2.662.54-4.918 2.034-6.351 4.205-1.469 2.224-1.961 5.018-1.389 7.87.76 3.779 3.553 7.335 8.25 8.056a12.51 12.51 0 0 0 3.471.024c2.639-.328 4.653-1.476 6.119-3.487h.004c.523-.695 1.053-1.697 1.422-2.723a.304.304 0 0 0-.16-.376l-3.206-1.467h.002Zm-11.269-3.169a.13.13 0 0 1-.155-.133c.127-2.573 2.223-4.251 4.103-4.616 2.341-.487 4.317.538 5.375 2.69a.13.13 0 0 1-.091.186l-9.231 1.873h-.001Zm20.793 5.443s-.07-.176-.129-.385a.302.302 0 0 0-.348-.219l-.111.023c-1.04.208-3.007.611-4.046.822l-.123.024a.302.302 0 0 0-.234.364l.027.12c.725 3.174 3.888 5.08 8.563 5.075 5.293-.005 8.452-2.396 8.447-6.397-.003-2.73-1.837-4.688-5.037-5.374l-4.663-1.01c-1.651-.378-1.863-1.14-1.863-1.761-.002-1.89 2.133-2.04 2.786-2.04 1.9-.002 3.298.852 3.738 2.283l.035.128a.3.3 0 0 0 .351.217l.115-.023 3.969-.805a.303.303 0 0 0 .229-.383l-.038-.129c-.925-3.145-4.084-5.097-8.242-5.094-4.705.005-7.864 2.543-7.861 6.32.003 2.757 1.93 4.678 5.428 5.41l3.996.816c1.497.312 2.255.942 2.257 1.879 0 1.243-1.279 2.136-3.179 2.08-2.055-.062-3.723-.749-4.16-2.215m18.1.274s-.07-.176-.129-.385a.302.302 0 0 0-.348-.219l-.11.023c-1.041.208-3.008.611-4.046.822l-.123.024a.302.302 0 0 0-.234.364l.027.12c.725 3.174 3.888 5.08 8.563 5.075 5.293-.005 8.452-2.396 8.447-6.397-.003-2.73-1.838-4.688-5.038-5.374l-4.662-1.01c-1.651-.378-1.864-1.14-1.864-1.761-.001-1.89 2.134-2.04 2.787-2.04 1.9-.002 3.297.852 3.738 2.283l.035.128a.3.3 0 0 0 .351.217l.115-.023 3.968-.805a.303.303 0 0 0 .23-.383l-.038-.129c-.925-3.145-4.084-5.097-8.242-5.094-4.705.005-7.864 2.543-7.861 6.32.003 2.757 1.93 4.678 5.428 5.41l3.995.816c1.498.312 2.256.942 2.257 1.879 0 1.243-1.279 2.136-3.178 2.08-2.055-.062-3.723-.749-4.16-2.215m-53.056-8.835c0-3.31-2.858-5.464-5.457-5.464-.156.002-.316.01-.477.026a5.669 5.669 0 0 0-4.878 3.352.042.042 0 0 1-.079-.008c-.507-1.93-2.319-3.368-4.674-3.368a4.98 4.98 0 0 0-.672.047c-.843.095-2.84.502-4.18 2.53-.024.035-.078.02-.078-.023V7.47a.302.302 0 0 0-.404-.286L70.428 8.82h.003a.308.308 0 0 0-.198.285v18.007a.3.3 0 0 0 .3.302h4.401a.3.3 0 0 0 .301-.302l-.067-12.155a2.712 2.712 0 0 1 2.699-2.698c1.484 0 2.699 1.221 2.699 2.713l-.094 12.14c0 .168.135.304.3.304h4.402c.167 0 .3-.136.3-.304V14.976a2.72 2.72 0 0 1 2.704-2.718h.01a2.72 2.72 0 0 1 2.704 2.718l-.014 12.127c0 .165.132.297.296.297h4.338c.165 0 .3-.136.3-.303l-.005-14.096-.002.002Z"/></svg>